# xmcd
#
# Track frame offsets: 
#        182
#        22007
#        41807
#        61020
#        86595
#        107395
#        126617
#        146357
#
# Disc length: 2228 seconds
#
# Revision: 2
# Processed by: cddbd v1.5.2PL0 Copyright (c) Steve Scherf et al.
# Submitted via: ExactAudioCopy v0.99pb4
#
DISCID=6808b208
DTITLE=Vanessa Bell Armstrong - Vanessa Bell Armstrong
DYEAR=1900
DGENRE=blues
TTITLE0=Pressing on
TTITLE1=You bring out the best in me
TTITLE2=Learn to love
TTITLE3=The denied stone
TTITLE4=I wanna be ready
TTITLE5=Always
TTITLE6=Living for you
TTITLE7=Don't turn your back
EXTD=
EXTT0=
EXTT1=
EXTT2=
EXTT3=
EXTT4=
EXTT5=
EXTT6=
EXTT7=
PLAYORDER=
